<?xml version="1.0" encoding="UTF-8"?>
<svg viewBox="0 0 188.39035 167.40457" xmlns="http://www.w3.org/2000/svg" xmlns:xlink="http://www.w3.org/1999/xlink">
 <defs>
  <filter id="q">
   <feGaussianBlur stdDeviation=".77344"/>
  </filter>
  <filter id="p">
   <feGaussianBlur stdDeviation=".80937"/>
  </filter>
  <filter id="o" x="-.02291" y="-.252" width="1.0458" height="1.504">
   <feGaussianBlur stdDeviation=".6825"/>
  </filter>
  <linearGradient id="a">
   <stop stop-color="#eeeeec" offset="0"/>
   <stop stop-color="#eeeeec" stop-opacity="0" offset="1"/>
  </linearGradient>
  <linearGradient id="l" x2="0" y1="93.954" y2="83.789" gradientUnits="userSpaceOnUse">
   <stop stop-color="#ce5c00" offset="0"/>
   <stop stop-color="#ce5c00" stop-opacity="0" offset="1"/>
  </linearGradient>
  <linearGradient id="h" x2="0" y1="94.13" y2="84.708" gradientUnits="userSpaceOnUse">
   <stop stop-color="#4e9a06" offset="0"/>
   <stop stop-color="#4e9a06" stop-opacity="0" offset="1"/>
  </linearGradient>
  <linearGradient id="g" x2="0" y1="94.838" y2="82.463" gradientUnits="userSpaceOnUse">
   <stop stop-color="#3465a4" offset="0"/>
   <stop stop-color="#3465a4" stop-opacity="0" offset="1"/>
  </linearGradient>
  <linearGradient id="f" x1="200" x2="201.37" y1="95.014" y2="88.297" gradientUnits="userSpaceOnUse">
   <stop stop-color="#75507b" offset="0"/>
   <stop stop-color="#75507b" stop-opacity="0" offset="1"/>
  </linearGradient>
  <linearGradient id="n" x2="0" y1="38.898" y2="65.047" gradientUnits="userSpaceOnUse" xlink:href="#a"/>
  <linearGradient id="m" x1="149.62" x2="149.44" y1="43.705" y2="52.728" gradientUnits="userSpaceOnUse" xlink:href="#a"/>
  <linearGradient id="k" x1="166.6" x2="166.41" y1="62.089" y2="71.113" gradientUnits="userSpaceOnUse" xlink:href="#a"/>
  <linearGradient id="j" x1="183.21" x2="183.03" y1="52.72" y2="61.744" gradientUnits="userSpaceOnUse" xlink:href="#a"/>
  <linearGradient id="i" x1="200.01" x2="199.82" y1="79.06" y2="88.084" gradientUnits="userSpaceOnUse" xlink:href="#a"/>
  <linearGradient id="e" x1="170.16" x2="169.73" y1="198.72" y2="225.57" gradientUnits="userSpaceOnUse" xlink:href="#a"/>
  <linearGradient id="d" x2="0" y1="151.62" y2="175.38" gradientUnits="userSpaceOnUse" xlink:href="#a"/>
  <linearGradient id="c" x1="172.22" x2="171.97" y1="170.25" y2="180.5" gradientUnits="userSpaceOnUse" xlink:href="#a"/>
  <radialGradient id="b" cx="91.5" cy="81.75" r="25.75" gradientUnits="userSpaceOnUse">
   <stop offset="0"/>
   <stop stop-opacity="0" offset="1"/>
  </radialGradient>
 </defs>
 <path d="m103.2 19.231 76.125 0.10144" fill="none" stroke="#7f7f7f" stroke-dasharray="0.5, 0.5" stroke-width=".5"/>
 <path d="m103.2 69.356 76.125 0.10144" fill="none" stroke="#7f7f7f" stroke-dasharray="0.5, 0.5" stroke-width=".5"/>
 <g transform="translate(-36.679 -23.042)">
  <path d="m40.318 23.042h74.085a3.6388 4.5045 0 0 1 3.6388 4.5045v66.593a3.6388 4.5045 0 0 1 -3.6388 4.5045h-74.085a3.6388 4.5045 0 0 1 -3.6388 -4.5045v-66.593a3.6388 4.5045 0 0 1 3.6388 -4.5045" fill="#e8e8e8" fill-rule="evenodd"/>
  <g transform="matrix(-.023758 -.47096 .47096 -.023758 121.49 204)">
   <path transform="matrix(1.1176 0 0 1.1176 -12.235 -111.37)" d="m335.62 32.875a4.25 4.25 0 1 1 -8.5 0 4.25 4.25 0 1 1 8.5 0z" fill="#729fcf"/>
   <path d="m363.5-76.75a56.25 56.25 0 0 1 -44.291 54.964l-11.959-54.964z" fill="#729fcf"/>
   <path d="m324.78-23.301a56.25 56.25 0 0 1 -35.192 -106.85" fill="#73d216"/>
   <path d="m271.21-119.93a56.25 56.25 0 0 1 91.652 51.661l-55.608-8.4774z" fill="#f57900"/>
  </g>
  <path d="m101.25 59.75c0 12.696-7.804-1-17.5-4.25-12.038-4.0349-28.5 16.946-28.5 4.25s10.304-23 23-23 23 10.304 23 23z" fill="url(#n)" opacity=".405"/>
  <path transform="matrix(1.0694 0 0 1.0694 -19.81 -26.331)" d="m116.25 81.75a24.75 24.75 0 1 1 -49.5 0 24.75 24.75 0 1 1 49.5 0z" fill="none" opacity=".405" stroke="url(#b)" stroke-linecap="round" stroke-linejoin="bevel" stroke-width="3.7406"/>
 </g>
 <g transform="translate(-29.265 -23.042)">
  <path d="m133.85 24.042h79.879a3.9234 4.5045 0 0 1 3.9234 4.5045v66.593a3.9234 4.5045 0 0 1 -3.9234 4.5045h-79.879a3.9234 4.5045 0 0 1 -3.9234 -4.5045v-66.593a3.9234 4.5045 0 0 1 3.9234 -4.5045" fill="#e8e8e8" fill-rule="evenodd"/>
  <g transform="translate(.2013)">
   <path d="m138.98 34.839h68.521a3.9234 4.5045 0 0 1 3.9234 4.5045v51.449a3.9234 4.5045 0 0 1 -3.9234 4.5045h-68.521a3.9234 4.5045 0 0 1 -3.9234 -4.5045v-51.449a3.9234 4.5045 0 0 1 3.9234 -4.5045" fill="none" opacity=".89085" stroke="#979998" stroke-linecap="round" stroke-linejoin="bevel"/>
   <path d="m135.88 54.805 76.125 0.10144" fill="none" stroke="#7f7f7f" stroke-dasharray="0.5, 0.5" stroke-width=".5"/>
   <path d="m135.75 67.336 76.125 0.10144" fill="none" stroke="#7f7f7f" stroke-dasharray="0.5, 0.5" stroke-width=".5"/>
   <path d="m136.25 79.867 76.125 0.10144" fill="none" stroke="#7f7f7f" stroke-dasharray="0.5, 0.5" stroke-width=".5"/>
   <path d="m146.89 42h5.4724a3.6388 4.5045 0 0 1 3.6388 4.5045v41.491a3.6388 4.5045 0 0 1 -3.6388 4.5045h-5.4724a3.6388 4.5045 0 0 1 -3.6388 -4.5045v-41.491a3.6388 4.5045 0 0 1 3.6388 -4.5045" fill="#f57900"/>
   <path d="m163.64 60.75h5.4724a3.6388 4.5045 0 0 1 3.6388 4.5045v22.741a3.6388 4.5045 0 0 1 -3.6388 4.5045h-5.4724a3.6388 4.5045 0 0 1 -3.6388 -4.5045v-22.741a3.6388 4.5045 0 0 1 3.6388 -4.5045" fill="#73d216"/>
   <path d="m180.25 51h5.747a3.5015 3.9149 0 0 1 3.5015 3.9149v33.67a3.5015 3.9149 0 0 1 -3.5015 3.9149h-5.747a3.5015 3.9149 0 0 1 -3.5015 -3.9149v-33.67a3.5015 3.9149 0 0 1 3.5015 -3.9149" fill="#9ebbd9"/>
   <path d="m198.75,77.25h2.25a5.25,5.25 0 0,1 5.25,5.25v4.75a5.25,5.25 0 0,1 -5.25,5.25h-2.25a5.25,5.25 0 0,1 -5.25-5.25v-4.75a5.25,5.25 0 0,1 5.25-5.25" fill="#ad7fa8"/>
   <path d="m146.94 43.031c-1.607 0-2.9995 1.5648-2.9375 5.9375 0.84087 2.9483 2.1309-0.1421 5.3125-1.25 5.3102-1.8491 4.0776 3.6478 5.5625 1.25 0.06201-4.3727-1.3305-5.9375-2.9375-5.9375h-5z" fill="url(#m)" opacity=".89085"/>
   <path d="m146.94 91.709c-1.607 0-2.9995-1.5648-2.9375-5.9375 0.84087-2.9483 2.1309 0.1421 5.3125 1.25 5.3102 1.8491 4.0776-3.6478 5.5625-1.25 0.06201 4.3727-1.3305 5.9375-2.9375 5.9375h-5z" fill="url(#l)" opacity=".89085"/>
   <path d="m163.91 61.416c-1.607 0-2.9995 1.5648-2.9375 5.9375 0.84087 2.9483 2.1309-0.1421 5.3125-1.25 5.3102-1.8491 4.0776 3.6478 5.5625 1.25 0.06201-4.3727-1.3305-5.9375-2.9375-5.9375h-5z" fill="url(#k)" opacity=".89085"/>
   <path d="m180.53 52.047c-1.607 0-2.9995 1.5648-2.9375 5.9375 0.84087 2.9483 2.1309-0.1421 5.3125-1.25 5.3102-1.8491 4.0776 3.6478 5.5625 1.25 0.06201-4.3727-1.3305-5.9375-2.9375-5.9375h-5z" fill="url(#j)" opacity=".89085"/>
   <path d="m197.32 78.387c-1.607 0-2.9995 1.5648-2.9375 5.9375 0.84087 2.9483 2.1309-0.1421 5.3125-1.25 5.3102-1.8491 4.0776 3.6478 5.5625 1.25 0.06201-4.3727-1.3305-5.9375-2.9375-5.9375h-5z" fill="url(#i)" opacity=".89085"/>
   <path d="m163.73 91.886c-1.607 0-2.9995-1.5648-2.9375-5.9375 0.84087-2.9483 2.1309 0.1421 5.3125 1.25 5.3102 1.8491 4.0776-3.6478 5.5625-1.25 0.06201 4.3727-1.3305 5.9375-2.9375 5.9375h-5z" fill="url(#h)" opacity=".89085"/>
   <path d="m180.53 91.886c-1.607 0-2.9995-1.5648-2.9375-5.9375 0.84087-2.9483 2.1309 0.1421 5.3125 1.25 5.3102 1.8491 4.0776-3.6478 5.5625-1.25 0.06201 4.3727-1.3305 5.9375-2.9375 5.9375h-5z" fill="url(#g)" opacity=".89085"/>
   <path d="m197.5 91.886c-1.607 0-2.9995-1.5648-2.9375-5.9375 0.84087-2.9483 2.1309 0.1421 5.3125 1.25 5.3102 1.8491 4.0776-3.6478 5.5625-1.25 0.06201 4.3727-1.3305 5.9375-2.9375 5.9375h-5z" fill="url(#f)" opacity=".89085"/>
  </g>
 </g>
 <g transform="translate(-31.679 -23.042)">
  <path d="m136.27 114.84h79.879a3.9234 4.5045 0 0 1 3.9234 4.5045v66.593a3.9234 4.5045 0 0 1 -3.9234 4.5045h-79.879a3.9234 4.5045 0 0 1 -3.9234 -4.5045v-66.593a3.9234 4.5045 0 0 1 3.9234 -4.5045" fill="#e8e8e8" fill-rule="evenodd"/>
  <g transform="translate(2.1398)">
   <g transform="matrix(-1 0 0 1 346.84 -57.806)">
    <path d="m137.69 189.53 16.5 13.5 15-1.25 21.75 4.5 17.75-4.75-0.25 37.75h-71l0.25-49.75z" fill="#f57900"/>
    <path d="m139 193.69-0.25 43.25h0.09375l0.15625-29.25c17.833 10.01 13.695 2.0147 32.361 1.9491 24.595-0.08637 14.369 12.246 35.296 0.51961l0.09375-6.0312-16.938 4.125-20.75-3.9062-14.312 1.0938-15.75-11.75z" fill="url(#e)" opacity=".83099"/>
   </g>
   <g transform="translate(-.125,-.125)">
    <path d="m138.5,145 13.75,9.75 15.75,5.75 25.5,3.75 16.25-6.75-.25,24.5h-71v-37z" fill="#73d216"/>
    <path d="m139.88 150.16c16.21 9.6313 39.05 16.89 55.116 15.059 3.3493-0.38175 13.601-6.0726 13.601-6.0726l-0.11656 12.851s-14.009 1.0931-44.426-6.625c-20.501-5.2235-24.051 1.375-24.051 1.375s-0.07757-9.5148-0.12331-16.588z" fill="url(#d)"/>
   </g>
   <g transform="translate(.125,.5)">
    <path d="m138.25,170.25 13.75-4.5 16.5,3 25.75,1.25 15.5-1.25-.25,12.75h-71l-.25-11.25z" fill="#729fcf"/>
    <path d="m140.75 171.46 12.877-4.2143 15.452 2.8095 24.115 1.1706 14.516-1.1706-0.23413 11.94s-11.881-9.4954-33.746-4.25c-11.849 2.8425-32.746 4.25-32.746 4.25l-0.23413-10.536z" fill="url(#c)"/>
   </g>
   <path d="m142.84 124.62c-2.7106 0-4.8927 2.2304-4.8927 5.0009v52.041c0 0.33566 0.03062 0.68338 0.09174 1.0002 0.37722-0.09467 0.75543-0.15628 1.162-0.15628h70.73c0.04318-0.26817 0.06116-0.56285 0.06116-0.8439v-52.041c0-2.7705-2.1821-5.0009-4.8927-5.0009h-62.259z" fill="none" opacity=".89085" stroke="#979998" stroke-linecap="round" stroke-linejoin="bevel" stroke-width=".9839"/>
   <path d="m138.23 132.43 72.24 0.10526" fill="none" stroke="#7f7f7f" stroke-dasharray="0.49617396, 0.49617396" stroke-width=".49617"/>
   <path d="m138.17 144.43 71.004 0.10654" fill="none" stroke="#7f7f7f" stroke-dasharray="0.4948934, 0.4948934" stroke-width=".49489"/>
   <path d="m137.87 157.14 71.887 0.10562" fill="none" stroke="#7f7f7f" stroke-dasharray="0.49581133, 0.49581133" stroke-width=".49581"/>
   <path d="m137.66 169.67 72.24 0.10526" fill="none" stroke="#7f7f7f" stroke-dasharray="0.49617396, 0.49617396" stroke-width=".49617"/>
  </g>
 </g>
 <path d="m3.6388 91.5h74.085a3.6388 4.5045 0 0 1 3.6388 4.5045v66.593a3.6388 4.5045 0 0 1 -3.6388 4.5045h-74.085a3.6388 4.5045 0 0 1 -3.6388 -4.5045v-66.593a3.6388 4.5045 0 0 1 3.6388 -4.5045" fill="#e8e8e8" fill-rule="evenodd"/>
 <path d="m75.977 104.68-16.5 13.5-15-1.25-21.75 4.5-17.75 9.25 0.03125 4 17.719-9.25 21.75-4.5 15 1.25 16.5-13.5 0.21875 45.75h0.03125l-0.25-49.75z" fill="#f57900"/>
 <path d="m18.946 140.21-13.75 4.5 0.09375 3.9688 13.656-4.4688 16.5 3 25.75 1.25 15.406-1.25 0.09375-4-15.5 1.25-25.75-1.25-16.5-3z" fill="#729fcf"/>
 <path d="m9.6641 100.08c-2.7106 0-4.8927 2.2304-4.8927 5.0009v52.041c0 0.33566 0.03062 0.68338 0.09174 1.0002 0.37722-0.09467 0.75543-0.15628 1.162-0.15628h70.73c0.04318-0.26817 0.06116-0.56285 0.06116-0.8439v-52.041c0-2.7705-2.1821-5.0009-4.8927-5.0009h-62.259z" fill="none" opacity=".89085" stroke="#979998" stroke-linecap="round" stroke-linejoin="bevel" stroke-width=".9839"/>
 <path d="m5.0524 107.89 72.24 0.10526" fill="none" stroke="#7f7f7f" stroke-dasharray="0.49617396, 0.49617396" stroke-width=".49617"/>
 <path d="m4.9911 119.89 71.004 0.10654" fill="none" stroke="#7f7f7f" stroke-dasharray="0.4948934, 0.4948934" stroke-width=".49489"/>
 <path d="m4.6898 132.59 71.887 0.10562" fill="none" stroke="#7f7f7f" stroke-dasharray="0.49581133, 0.49581133" stroke-width=".49581"/>
 <path d="m4.4829 145.13 72.24 0.10526" fill="none" stroke="#7f7f7f" stroke-dasharray="0.49617396, 0.49617396" stroke-width=".49617"/>
 <path d="m76.227 104.68-16.5 13.5-15-1.25-21.75 4.5-17.75 9.25v2l17.75-9.25 21.75-4.5 15 1.25 16.5-13.5v-2zm0 2v2-2z" fill="#eeeeec" filter="url(#q)"/>
 <g transform="translate(-33.429 -81.292)">
  <path d="m38.875 199.12v4l13.75 9.75 15.75 5.75 25.5 3.75 16.219-6.7188 0.03125-4.0312-16.25 6.75-25.5-3.75-15.75-5.75-13.75-9.75z" fill="#73d216"/>
  <path d="m39.375 199.38v2l13.75 9.75 15.75 5.75 25.5 3.75 16.25-6.75v-2l-16.25 6.75-25.5-3.75-15.75-5.75-13.75-9.75z" fill="#eeeeec" filter="url(#p)"/>
 </g>
 <path d="m18.946 139.96-13.75 4.5 0.0625 2 13.688-4.5 16.5 3 25.75 1.25 15.438-1.25 0.0625-2-15.5 1.25-25.75-1.25-16.5-3z" fill="#eeeeec" filter="url(#o)"/>
</svg>
